<?xml version="1.0" encoding="utf-8"?>
<!-- Generator: Adobe Illustrator 17.0.0, SVG Export Plug-In . SVG Version: 6.00 Build 0)  -->
<!DOCTYPE svg PUBLIC "-//W3C//DTD SVG 1.1//EN" "http://www.w3.org/Graphics/SVG/1.1/DTD/svg11.dtd">
<svg version="1.1" id="Layer_1" xmlns="http://www.w3.org/2000/svg" xmlns:xlink="http://www.w3.org/1999/xlink" x="0px" y="0px"
	 width="100px" height="100px" viewBox="0 0 100 100" enable-background="new 0 0 100 100" xml:space="preserve">
<path d="M75.594,55.774c-3.103,1.613-4.311,5.294-2.698,8.397c1.128,2.17,3.337,3.414,5.625,3.414c0.983,0,1.982-0.23,2.916-0.715
	l0.897-0.466l5.227-2.717l1.13-0.587l2.563-1.369l-8.92,6.483l0,0c0,7.164-5.828,12.441-12.992,12.441
	c-7.164,0-12.992-5.828-12.992-12.992V50.431l-7.144-1.046h7.144h3.45c2.72,0,4.926-2.205,4.926-4.926
	c0-2.72-2.205-4.926-4.926-4.926h-3.45v-6.323l-7.771,0.004c0,0,3.947-0.279,6.098-0.909c5.323-1.558,8.694-7.08,8.694-12.256
	c0-7.373-5.998-13.371-13.371-13.371S36.628,12.677,36.628,20.05c0,5.09,2.86,9.522,7.055,11.781v7.703H40.2
	c-2.721,0-4.926,2.205-4.926,4.926c0,2.72,2.205,4.926,4.926,4.926h3.483v18.277H43.65c0,7.164-5.828,12.992-12.992,12.992
	S17.679,75.65,17.679,68.486l-0.013-0.273l-8.563-6.39l2.206,1.264l1.13,0.587l5.227,2.717l0.897,0.466
	c0.934,0.485,1.932,0.715,2.916,0.715c2.288,0,4.497-1.243,5.625-3.414c1.614-3.103,0.405-6.927-2.698-8.54L5,45.753v21.91
	c0,14.148,11.51,25.658,25.658,25.658c7.167,0,13.011-2.715,18-7.249c-2.315-4.307-3.018-6.976-3.713-10.172
	c3.242,9.632,13.411,17.42,24.396,17.42C83.489,93.321,95,81.811,95,67.663V56.088c0-0.005,0-0.01,0-0.014V45.996L75.594,55.774z
	 M49.999,16.531c1.941,0,3.52,1.579,3.52,3.52s-1.579,3.52-3.52,3.52s-3.52-1.579-3.52-3.52S48.059,16.531,49.999,16.531z"/>
</svg>
