<?xml version="1.0" encoding="utf-8"?>
<!-- Generator: Adobe Illustrator 17.0.0, SVG Export Plug-In . SVG Version: 6.00 Build 0)  -->
<!DOCTYPE svg PUBLIC "-//W3C//DTD SVG 1.1//EN" "http://www.w3.org/Graphics/SVG/1.1/DTD/svg11.dtd">
<svg version="1.1" id="Layer_1" xmlns="http://www.w3.org/2000/svg" xmlns:xlink="http://www.w3.org/1999/xlink" x="0px" y="0px"
	 width="100px" height="100px" viewBox="0 0 100 100" enable-background="new 0 0 100 100" xml:space="preserve">
<g>
	<g>
		<path d="M91.645,8.355c-4.474-4.474-11.727-4.474-16.2,0l-13.5,13.501l-3.727-3.727c-1.959-1.959-5.134-1.959-7.093,0
			c-1.959,1.959-1.959,5.134,0,7.093l3.727,3.727L13.342,70.457c-2.039,2.039-3.149,4.656-3.329,7.324
			c-0.073,1.087-0.347,3.105-0.675,5.292c-0.053,0.359-0.212,0.706-0.487,0.983h0l-3.105,3.106c-0.994,0.994-0.994,2.606,0,3.6
			l3.493,3.493c0.994,0.994,2.606,0.994,3.6,0l3.106-3.105c0.277-0.275,0.622-0.433,0.981-0.486
			c2.187-0.329,4.205-0.602,5.293-0.675c2.668-0.18,5.285-1.29,7.325-3.33l41.508-41.508l3.727,3.727
			c1.959,1.959,5.134,1.959,7.093,0c1.959-1.959,1.959-5.134,0-7.093L69.507,29.419l9.697,7.577l12.44-12.441
			C96.119,20.082,96.118,12.829,91.645,8.355z M65.051,42.749l-20.53,20.53c-0.994,0.994-2.606,0.994-3.6,0l-3.27-3.27
			c-0.994-0.993-2.605-0.993-3.599,0.001l-0.616,0.616l-0.002-0.002L18.706,75.351c-0.337,0.337-0.819,0.401-1.076,0.143
			s-0.194-0.74,0.143-1.076l23.841-23.841l0.004,0.004l15.633-15.633c0.994-0.994,2.606-0.994,3.6,0l4.2,4.201
			C66.045,40.143,66.045,41.755,65.051,42.749z"/>
	</g>
</g>
</svg>
