<?xml version="1.0" encoding="utf-8"?>
<!-- Generator: Adobe Illustrator 17.0.0, SVG Export Plug-In . SVG Version: 6.00 Build 0)  -->
<!DOCTYPE svg PUBLIC "-//W3C//DTD SVG 1.1//EN" "http://www.w3.org/Graphics/SVG/1.1/DTD/svg11.dtd">
<svg version="1.1" id="Layer_1" xmlns="http://www.w3.org/2000/svg" xmlns:xlink="http://www.w3.org/1999/xlink" x="0px" y="0px"
	 width="100px" height="100px" viewBox="0 0 100 100" enable-background="new 0 0 100 100" xml:space="preserve">
<g>
	<path d="M50,19.145c-1.515,0-3.007,0.099-4.476,0.272c2.671-0.564,5.438-0.867,8.276-0.867c0.956,0,1.901,0.046,2.841,0.111
		c1.122-1.436,1.797-3.238,1.797-5.201c0-4.673-3.788-8.46-8.46-8.46c-4.673,0-8.46,3.788-8.46,8.46
		c0,2.419,1.026,4.589,2.653,6.131c-18.179,2.804-32.099,18.516-32.099,37.481C12.072,78.019,29.053,95,50,95
		s37.928-16.981,37.928-37.928S70.947,19.145,50,19.145z M49.978,9.785c2.03,0,3.675,1.646,3.675,3.676
		c0,2.03-1.646,3.675-3.675,3.675s-3.675-1.645-3.675-3.675C46.303,11.431,47.948,9.785,49.978,9.785z M50,84.465
		c-15.128,0-27.392-12.264-27.392-27.392S34.872,29.68,50,29.68s27.392,12.264,27.392,27.392S65.128,84.465,50,84.465z"/>
	<path d="M63.614,41.926l-16.531,7.895c-1.613,0.77-3.563,2.72-4.334,4.334l-7.895,16.531c-0.77,1.613-0.081,2.302,1.532,1.532
		l16.531-7.895c1.613-0.77,3.563-2.721,4.334-4.334l7.895-16.531C65.916,41.845,65.227,41.156,63.614,41.926z"/>
</g>
</svg>
