<?xml version="1.0" encoding="utf-8"?>
<!-- Generator: Adobe Illustrator 17.0.0, SVG Export Plug-In . SVG Version: 6.00 Build 0)  -->
<!DOCTYPE svg PUBLIC "-//W3C//DTD SVG 1.1//EN" "http://www.w3.org/Graphics/SVG/1.1/DTD/svg11.dtd">
<svg version="1.1" id="Layer_1" xmlns="http://www.w3.org/2000/svg" xmlns:xlink="http://www.w3.org/1999/xlink" x="0px" y="0px"
	 width="100px" height="100px" viewBox="0 0 100 100" enable-background="new 0 0 100 100" xml:space="preserve">
<path d="M79.375,5h-58.75C11.996,5,5,11.996,5,20.625v58.75C5,88.004,11.996,95,20.625,95h58.75C88.004,95,95,88.004,95,79.375
	v-58.75C95,11.996,88.004,5,79.375,5z M30.745,38.931c-4.513,0-8.184-3.672-8.184-8.185s3.672-8.185,8.184-8.185
	c4.514,0,8.185,3.672,8.185,8.185S35.258,38.931,30.745,38.931z M50,58.185c-4.514,0-8.185-3.672-8.185-8.185
	s3.672-8.185,8.185-8.185c4.513,0,8.184,3.672,8.184,8.185S54.513,58.185,50,58.185z M69.254,77.44
	c-4.514,0-8.185-3.672-8.185-8.185s3.672-8.185,8.185-8.185c4.514,0,8.185,3.672,8.185,8.185S73.768,77.44,69.254,77.44z"/>
</svg>
