<?xml version="1.0" encoding="utf-8"?>
<!-- Generator: Adobe Illustrator 17.0.0, SVG Export Plug-In . SVG Version: 6.00 Build 0)  -->
<!DOCTYPE svg PUBLIC "-//W3C//DTD SVG 1.1//EN" "http://www.w3.org/Graphics/SVG/1.1/DTD/svg11.dtd">
<svg version="1.1" id="Layer_1" xmlns="http://www.w3.org/2000/svg" xmlns:xlink="http://www.w3.org/1999/xlink" x="0px" y="0px"
	 width="100px" height="100px" viewBox="0 0 100 100" enable-background="new 0 0 100 100" xml:space="preserve">
<g>
	<g>
		<g>
			<path d="M62.728,10.148H58.5h-1.634V6.419C56.866,5.636,56.231,5,55.447,5H44.553c-0.784,0-1.419,0.636-1.419,1.419v3.729H41.5
				h-4.228c-4.686,0-8.485,3.799-8.485,8.485v67.881c0,4.686,3.799,8.485,8.485,8.485h25.455c4.686,0,8.485-3.799,8.485-8.485
				V18.633C71.213,13.947,67.414,10.148,62.728,10.148z M61.692,82.925c0,1.409-1.146,2.555-2.555,2.555H40.863
				c-1.409,0-2.555-1.146-2.555-2.555V22.224c0-1.409,1.146-2.555,2.555-2.555h18.274c1.409,0,2.555,1.146,2.555,2.555V82.925z"/>
		</g>
	</g>
	<g>
		<g>
			<path d="M55.77,39.91l-11.541,9.5c-0.603,0.496-1.096,1.541-1.096,2.321v13.247c0,0.781,0.493,1.013,1.096,0.517l11.541-9.5
				c0.603-0.496,1.096-1.541,1.096-2.321V40.427C56.866,39.646,56.373,39.413,55.77,39.91z"/>
		</g>
		<g>
			<path d="M55.77,61.862l-11.541,9.5c-0.603,0.496-1.096,1.541-1.096,2.321v1.649c0,0.046,0,0.098,0,0.147c0,0.38,0,0.83,0,1.272
				c0,0.464,0,0.913,0,1.242v1.242c0,0.784,0.635,1.419,1.419,1.419h10.894c0.784,0,1.419-0.636,1.419-1.419v-1.242
				c0-0.329,0-0.778,0-1.242c0-0.442,0-0.893,0-1.272c0-0.049,0-0.101,0-0.147v-7.155c0-0.781,0-2.058,0-2.839V62.38
				C56.866,61.599,56.373,61.366,55.77,61.862z"/>
		</g>
		<g>
			<path d="M55.447,24.495H44.553c-0.784,0-1.419,0.636-1.419,1.419v1.733v1.987v13.391c0,0.781,0.493,1.013,1.096,0.517l11.541-9.5
				c0.603-0.496,1.096-1.541,1.096-2.321v-2.087v-1.987v-1.733C56.866,25.13,56.231,24.495,55.447,24.495z"/>
		</g>
	</g>
</g>
</svg>
