<svg xmlns="http://www.w3.org/2000/svg" xmlns:xlink="http://www.w3.org/1999/xlink" version="1.1" x="0px" y="0px" viewBox="0 0 100 125" enable-background="new 0 0 100 100" xml:space="preserve"><g><path d="M67.2,19c-5.9,0-10.7,4.8-10.7,10.7c0,5.9,4.8,10.7,10.7,10.7c5.9,0,10.7-4.8,10.7-10.7C77.9,23.8,73.1,19,67.2,19z    M67.2,37.4c-4.2,0-7.7-3.5-7.7-7.7c0-4.2,3.5-7.7,7.7-7.7s7.7,3.5,7.7,7.7C74.9,33.9,71.5,37.4,67.2,37.4z"/><path d="M88.6,5H11.4C7.9,5,5,7.9,5,11.4v77.3c0,3.5,2.8,6.4,6.4,6.4h77.3c3.5,0,6.4-2.9,6.4-6.4V11.4C95,7.9,92.1,5,88.6,5z    M90.9,88.6c0,1.3-1,2.3-2.3,2.3H11.4c-1.3,0-2.3-1-2.3-2.3v-27c0.2-0.1,0.3-0.3,0.5-0.5l20-30.1c0.5-0.8,1.2-1.2,1.9-1.2   c0.7,0,1.4,0.4,1.9,1.2l29.4,44.3c0.4,0.6,0.9,0.9,1.4,0.9c0.5,0,1-0.3,1.3-0.8l15.1-21.6c0.5-0.8,1.2-1.2,1.9-1.2   c0.7,0,1.4,0.4,1.8,1L90.9,65V88.6z M90.9,56.1l-3.8-6.6c-1.2-1.9-2.9-2.9-4.6-2.9h0c-1.8,0-3.4,1-4.6,2.9L64.1,69.1l-28-42.3   c-1.2-1.9-2.9-2.9-4.7-2.9h0c-1.8,0-3.4,1-4.6,2.9L9.1,53.5V11.4c0-1.3,1-2.3,2.3-2.3h77.3c1.3,0,2.3,1,2.3,2.3V56.1z"/></g></svg>