<?xml version="1.0" encoding="utf-8"?>
<!-- Generator: Adobe Illustrator 17.0.0, SVG Export Plug-In . SVG Version: 6.00 Build 0)  -->
<!DOCTYPE svg PUBLIC "-//W3C//DTD SVG 1.1//EN" "http://www.w3.org/Graphics/SVG/1.1/DTD/svg11.dtd">
<svg version="1.1" id="Layer_1" xmlns="http://www.w3.org/2000/svg" xmlns:xlink="http://www.w3.org/1999/xlink" x="0px" y="0px"
	 width="100px" height="100px" viewBox="0 0 100 100" enable-background="new 0 0 100 100" xml:space="preserve">
<path d="M65.155,88.826h-0.946H52.281l11.804-0.854L57.29,41.014h2.727c1.708,0,3.087-1.383,3.087-3.088
	c0-1.704-1.38-3.087-3.087-3.087H46.509c0,0,6.657-0.523,7.846-0.579c0.371-0.018,0.683-0.188,0.896-0.459
	c0.757-1.182,2.824-4.541,4.525-8.478c2.122-4.915-0.853-8.937-6.611-8.937h-4.102l2.752-0.627v-2.824h2.454
	c1.008,0,1.828-0.818,1.828-1.827c0-1.01-0.819-1.828-1.828-1.828h-2.454V6.826C51.814,5.818,50.996,5,49.987,5
	c-1.01,0-1.828,0.818-1.828,1.826v2.454h-2.456c-1.008,0-1.826,0.818-1.826,1.828c0,1.009,0.818,1.827,1.826,1.827h2.456l0.013,3.45
	h-1.364c-5.759,0-8.715,4.022-6.569,8.937c1.291,2.958,3.765,7.477,4.901,9.516h-5.158c-1.707,0-3.089,1.383-3.089,3.087
	c0,1.706,1.383,3.088,3.089,3.088h2.941l-7.183,47.811h-0.9c-1.704,0-3.087,1.383-3.087,3.087c0,1.704,1.383,3.087,3.087,3.087
	h30.313c1.704,0,3.09-1.383,3.09-3.087C68.245,90.208,66.859,88.826,65.155,88.826z"/>
</svg>
