<?xml version="1.0" encoding="utf-8"?>
<!-- Generator: Adobe Illustrator 17.0.0, SVG Export Plug-In . SVG Version: 6.00 Build 0)  -->
<!DOCTYPE svg PUBLIC "-//W3C//DTD SVG 1.1//EN" "http://www.w3.org/Graphics/SVG/1.1/DTD/svg11.dtd">
<svg version="1.1" id="Layer_1" xmlns="http://www.w3.org/2000/svg" xmlns:xlink="http://www.w3.org/1999/xlink" x="0px" y="0px"
	 width="100px" height="100px" viewBox="0 0 100 100" enable-background="new 0 0 100 100" xml:space="preserve">
<g>
	<path d="M86.327,50l7.348-7.348c1.768-1.768,1.768-4.644,0-6.411c-1.768-1.768-4.643-1.768-6.411,0l-6.486,6.486l1.048,2.77
		l-9.257-9.257c-1.768-1.768-4.644-1.768-6.411,0c-1.768,1.768-1.768,4.643,0,6.411L73.504,50l-7.348,7.348
		c-1.768,1.768-1.768,4.643,0,6.411c1.768,1.768,4.644,1.768,6.411,0l9.257-9.257l-1.048,2.77l6.487,6.486
		c1.768,1.768,4.643,1.768,6.411,0c1.768-1.768,1.768-4.643,0-6.411L86.327,50z"/>
	<path d="M49.905,16.584L33.186,26.967l0.003,0.005l-9.797,6.084l4.153-3.648H15.98C9.941,29.408,5,34.349,5,40.388v19.215
		c0,6.039,4.941,10.98,10.98,10.98h10.18l-7.417-6.526l10.509,6.526h0.003l20.65,12.825c4.685,2.453,7.768,1.431,7.768-4.609V21.226
		C57.673,15.188,54.59,14.131,49.905,16.584z"/>
</g>
</svg>
