<?xml version="1.0" encoding="utf-8"?>
<!-- Generator: Adobe Illustrator 17.0.0, SVG Export Plug-In . SVG Version: 6.00 Build 0)  -->
<!DOCTYPE svg PUBLIC "-//W3C//DTD SVG 1.1//EN" "http://www.w3.org/Graphics/SVG/1.1/DTD/svg11.dtd">
<svg version="1.1" id="Layer_1" xmlns="http://www.w3.org/2000/svg" xmlns:xlink="http://www.w3.org/1999/xlink" x="0px" y="0px"
	 width="100px" height="100px" viewBox="0 0 100 100" enable-background="new 0 0 100 100" xml:space="preserve">
<g>
	<path d="M45.037,6.657C45.037,5.742,44.295,5,43.381,5c-0.44,0-0.839,0.174-1.135,0.454l-0.003-0.001l-0.02,0.02
		c-0.002,0.002-0.005,0.004-0.007,0.006c-0.003,0.002-0.004,0.005-0.007,0.008L12.456,35.242c-2.932,2.932-2.932,7.686,0,10.618
		c2.933,2.932,7.687,2.932,10.618,0l11.913-11.913l-4.965,6.71v46.835c0,4.147,3.361,7.508,7.508,7.508s7.508-3.361,7.508-7.508
		V6.657L45.037,6.657L45.037,6.657z"/>
	<path d="M54.963,93.343c0,0.915,0.742,1.657,1.657,1.657c0.44,0,0.839-0.174,1.135-0.454l0.003,0.001l0.02-0.02
		c0.002-0.002,0.005-0.004,0.007-0.006c0.003-0.003,0.004-0.006,0.007-0.008l29.753-29.755c2.932-2.932,2.932-7.686,0-10.618
		c-2.933-2.932-7.687-2.932-10.618,0L65.013,66.054l4.965-6.71V12.508C69.979,8.361,66.618,5,62.471,5s-7.508,3.361-7.508,7.508
		V93.343L54.963,93.343L54.963,93.343z"/>
</g>
</svg>
