<?xml version="1.0" encoding="utf-8"?>
<!-- Generator: Adobe Illustrator 17.0.0, SVG Export Plug-In . SVG Version: 6.00 Build 0)  -->
<!DOCTYPE svg PUBLIC "-//W3C//DTD SVG 1.1//EN" "http://www.w3.org/Graphics/SVG/1.1/DTD/svg11.dtd">
<svg version="1.1" id="Layer_1" xmlns="http://www.w3.org/2000/svg" xmlns:xlink="http://www.w3.org/1999/xlink" x="0px" y="0px"
	 width="100px" height="100px" viewBox="0 0 100 100" enable-background="new 0 0 100 100" xml:space="preserve">
<path d="M83.283,39.851L27.044,7.382C24.243,5.765,21.591,5,19.235,5c-5.777,0.001-9.768,4.602-9.768,12.531v64.938
	c0,7.93,3.991,12.531,9.768,12.531c2.356,0,5.009-0.765,7.81-2.382l56.238-32.469C92.951,54.567,92.951,45.433,83.283,39.851z
	 M65.308,50.965l-38.902,22.46l0,0l-5.292,3.056l5.292-4.986V29.924v-3.349v-6.111l1.672,7.076L66.98,50h0l5.292,3.055
	L65.308,50.965z"/>
</svg>
