<?xml version="1.0" encoding="utf-8"?>
<!-- Generator: Adobe Illustrator 17.0.0, SVG Export Plug-In . SVG Version: 6.00 Build 0)  -->
<!DOCTYPE svg PUBLIC "-//W3C//DTD SVG 1.1//EN" "http://www.w3.org/Graphics/SVG/1.1/DTD/svg11.dtd">
<svg version="1.1" id="Layer_1" xmlns="http://www.w3.org/2000/svg" xmlns:xlink="http://www.w3.org/1999/xlink" x="0px" y="0px"
	 width="100px" height="100px" viewBox="0 0 100 100" enable-background="new 0 0 100 100" xml:space="preserve">
<path d="M65.914,88.516H64.92H52.395L64.79,87.62l-7.135-49.309h2.864c1.793,0,3.242-1.452,3.242-3.243
	c0-1.79-1.449-3.242-3.242-3.242h-14.36c0,0,9.016-0.725,9.469-0.803s1.068-0.359,1.287-0.861l7.337-20.907l-12.177,8.267l3.06-3.38
	l-4.205-4.661c0.828-0.36,1.408-1.183,1.408-2.144C52.338,6.046,51.291,5,50,5s-2.338,1.046-2.338,2.337
	c0,0.961,0.581,1.784,1.409,2.144l-4.544,4.544l3.398,3.524L35.748,9.255l7.939,22.571h-4.207c-1.792,0-3.244,1.452-3.244,3.242
	c0,1.792,1.452,3.243,3.244,3.243h3.088l-7.543,50.206h-0.945c-1.79,0-3.242,1.452-3.242,3.242c0,1.79,1.452,3.242,3.242,3.242
	h31.831c1.79,0,3.245-1.452,3.245-3.242C69.159,89.968,67.704,88.516,65.914,88.516z"/>
</svg>
