<?xml version="1.0" encoding="utf-8"?>
<!-- Generator: Adobe Illustrator 17.0.0, SVG Export Plug-In . SVG Version: 6.00 Build 0)  -->
<!DOCTYPE svg PUBLIC "-//W3C//DTD SVG 1.1//EN" "http://www.w3.org/Graphics/SVG/1.1/DTD/svg11.dtd">
<svg version="1.1" id="Layer_1" xmlns="http://www.w3.org/2000/svg" xmlns:xlink="http://www.w3.org/1999/xlink" x="0px" y="0px"
	 width="100px" height="100px" viewBox="0 0 100 100" enable-background="new 0 0 100 100" xml:space="preserve">
<path d="M89.233,50.199c-3.605-0.64-7.042,1.768-7.678,5.372c-2.681,15.168-15.828,26.177-31.262,26.177
	c-17.506,0-31.748-14.242-31.748-31.748c0-17.506,14.242-31.748,31.748-31.748c8.396,0,16.288,3.241,22.264,9.123l0.018,0.003
	l4.898,4.662l-7.126-4.135h-1.273c-3.379,0-6.117,2.739-6.117,6.117s2.739,6.117,6.117,6.117h25.541V15.328
	c0-3.379-2.739-6.117-6.117-6.117c-3.379,0-6.117,2.739-6.117,6.117v9.496c0,0-1.967-8.251-2.032-8.309
	C72.08,9.074,61.503,5,50.293,5c-24.813,0-45,20.187-45,45c0,24.813,20.187,45,45,45c21.874,0,40.51-15.612,44.312-37.123
	C95.242,54.274,92.837,50.836,89.233,50.199z"/>
</svg>
