<?xml version="1.0" encoding="utf-8"?>
<!-- Generator: Adobe Illustrator 17.0.0, SVG Export Plug-In . SVG Version: 6.00 Build 0)  -->
<!DOCTYPE svg PUBLIC "-//W3C//DTD SVG 1.1//EN" "http://www.w3.org/Graphics/SVG/1.1/DTD/svg11.dtd">
<svg version="1.1" id="Layer_1" xmlns="http://www.w3.org/2000/svg" xmlns:xlink="http://www.w3.org/1999/xlink" x="0px" y="0px"
	 width="100px" height="100px" viewBox="0 0 100 100" enable-background="new 0 0 100 100" xml:space="preserve">
<g>
	<path d="M71.065,54.618c-2.879,2.173-6.237,3.911-9.926,5.088c0.218-0.094,0.435-0.191,0.65-0.29
		c0.006-0.003,0.012-0.006,0.019-0.009c9.779-4.52,16.565-14.413,16.565-25.894C78.373,17.766,65.607,5,49.86,5
		S21.346,17.766,21.346,33.513c0,11.24,6.505,20.96,15.955,25.604l0.001,0.001c0.21,0.103,0.421,0.204,0.633,0.301
		c0,0,0.001,0,0.001,0c0.213,0.098,0.427,0.194,0.643,0.287c-3.598-1.148-6.879-2.832-9.71-4.931L15.925,85.259l15.169-3.86
		L38.826,95l14.496-34.141l-2.603,9.532L61.174,95l7.733-13.601l15.169,3.86L71.065,54.618z M49.86,11.053
		c12.404,0,22.46,10.056,22.46,22.46c0,12.404-10.056,22.46-22.46,22.46c-12.404,0-22.46-10.056-22.46-22.46
		C27.4,21.109,37.455,11.053,49.86,11.053z"/>
	<polygon points="42.522,35.43 43.565,36.457 42.482,35.654 40.792,45.519 49.86,40.752 51.88,39.694 50.199,40.924 58.927,45.519 
		57.196,35.422 57.202,35.416 56.966,34.003 57.322,35.291 64.531,28.272 54.393,26.799 50.55,26.194 54.126,26.257 49.86,17.612 
		45.326,26.799 35.188,28.272 42.524,35.422 	"/>
</g>
</svg>
