<?xml version="1.0" encoding="utf-8"?>
<!-- Generator: Adobe Illustrator 17.0.0, SVG Export Plug-In . SVG Version: 6.00 Build 0)  -->
<!DOCTYPE svg PUBLIC "-//W3C//DTD SVG 1.1//EN" "http://www.w3.org/Graphics/SVG/1.1/DTD/svg11.dtd">
<svg version="1.1" id="Layer_1" xmlns="http://www.w3.org/2000/svg" xmlns:xlink="http://www.w3.org/1999/xlink" x="0px" y="0px"
	 width="100px" height="100px" viewBox="0 0 100 100" enable-background="new 0 0 100 100" xml:space="preserve">
<path d="M79.072,17.274H62.66h-5.286c-1.803,0-3.278,1.475-3.278,3.278v4.669v11.053v5.549h-7.294H36.206h-3.38
	c-1.803,0-3.278,1.475-3.278,3.278v2.9v6.948v11.423H14.532H9.751H8.278C6.475,66.371,5,67.846,5,69.649v1.132v2.842v9.103h15.234
	h16.098h6.293c1.803,0,3.278-1.475,3.278-3.278v-5.54V62.767v-2.27l-7.863-2.32h7.863h5.902h11.171h4.198
	c1.803,0,3.278-1.475,3.278-3.278v-3.61v-7.611v-7.705l-7.83-2.31h7.83v-0.035h12.926h6.243h2.102c1.803,0,3.278-1.475,3.278-3.278
	v-1.679v-4.081v-7.317H79.072z"/>
</svg>
