<?xml version="1.0" encoding="utf-8"?>
<!-- Generator: Adobe Illustrator 17.0.0, SVG Export Plug-In . SVG Version: 6.00 Build 0)  -->
<!DOCTYPE svg PUBLIC "-//W3C//DTD SVG 1.1//EN" "http://www.w3.org/Graphics/SVG/1.1/DTD/svg11.dtd">
<svg version="1.1" id="Layer_1" xmlns="http://www.w3.org/2000/svg" xmlns:xlink="http://www.w3.org/1999/xlink" x="0px" y="0px"
	 width="100px" height="100px" viewBox="0 0 100 100" enable-background="new 0 0 100 100" xml:space="preserve">
<g>
	<path d="M46.111,19.408l-15.306,9.506l0.002,0.005l-8.969,5.57l3.802-3.339H15.052C9.523,31.148,5,35.672,5,41.2v17.591
		c0,5.529,4.523,10.052,10.052,10.052h9.32l-6.79-5.975l9.621,5.975h0.003l18.906,11.741c4.289,2.246,7.112,1.31,7.112-4.219V23.658
		C53.223,18.129,50.4,17.162,46.111,19.408z"/>
	<path d="M63.213,31.349c-2.303,0-4.17,1.867-4.17,4.17v28.962c0,2.303,1.867,4.17,4.17,4.17c2.303,0,4.17-1.867,4.17-4.17V35.519
		C67.383,33.216,65.516,31.349,63.213,31.349z"/>
	<path d="M77.022,24.309c-2.303,0-4.17,1.867-4.17,4.17v43.041c0,2.303,1.867,4.17,4.17,4.17s4.17-1.867,4.17-4.17V28.479
		C81.191,26.177,79.325,24.309,77.022,24.309z"/>
	<path d="M90.83,18.082c-2.303,0-4.17,1.867-4.17,4.17v55.496c0,2.303,1.867,4.17,4.17,4.17c2.303,0,4.17-1.867,4.17-4.17V22.252
		C95,19.949,93.133,18.082,90.83,18.082z"/>
</g>
</svg>
