<?xml version="1.0" encoding="utf-8"?>
<!-- Generator: Adobe Illustrator 17.0.0, SVG Export Plug-In . SVG Version: 6.00 Build 0)  -->
<!DOCTYPE svg PUBLIC "-//W3C//DTD SVG 1.1//EN" "http://www.w3.org/Graphics/SVG/1.1/DTD/svg11.dtd">
<svg version="1.1" id="Layer_1" xmlns="http://www.w3.org/2000/svg" xmlns:xlink="http://www.w3.org/1999/xlink" x="0px" y="0px"
	 width="100px" height="100px" viewBox="0 0 100 100" enable-background="new 0 0 100 100" xml:space="preserve">
<path d="M36.889,5L36.889,5L36.889,5C25.762,5.001,16.74,14.023,16.74,25.15c0,5.931,2.578,11.246,6.659,14.935l-0.02,0.018
	c5.253,4.617,6.356,6.495,6.356,9.921c0,3.427-1.005,5.082-6.117,9.69c-4.208,3.694-6.88,9.098-6.88,15.136
	c0,11.126,9.023,20.15,20.15,20.15c0.002,0,0.004,0,0.004,0c10.85,0,16.769-6.434,20.652-17.245
	c4.193-11.672,9.085-18.569,19.389-18.569h2.687c2.007,0,3.634-1.622,3.641-3.629l0-5.557l0-5.557
	c-0.007-2.007-1.634-3.629-3.641-3.629h-2.687c-10.304,0-15.07-6.942-19.389-18.568l0,0C53.661,11.434,47.742,5,36.895,5
	c-0.002,0-0.004,0-0.004,0C36.889,5,36.889,5,36.889,5z M46.55,68.324c1.261,1.86,1.997,4.106,1.997,6.526l0,0.001l0,0.001
	c0,0.036-0.005,0.07-0.005,0.105c-0.003,0.342-0.018,0.683-0.05,1.019c-0.011,0.09-0.026,0.182-0.035,0.277
	c-0.036,0.286-0.087,0.567-0.141,0.846c-0.015,0.076-0.022,0.155-0.038,0.231c-1.137,5.247-5.801,9.179-11.388,9.179
	c-6.437,0-11.656-5.22-11.656-11.657v0V74.85c0-6.438,5.219-11.658,11.656-11.658C40.909,63.192,44.455,65.229,46.55,68.324z
	 M48.316,22.902c0.054,0.279,0.105,0.56,0.141,0.846c0.009,0.094,0.024,0.187,0.035,0.277c0.032,0.336,0.046,0.677,0.05,1.019
	c0,0.035,0.005,0.069,0.005,0.105l0,0.001l0,0.001c0,2.42-0.736,4.666-1.997,6.526c-2.095,3.094-5.641,5.132-9.66,5.132
	c-6.437,0-11.656-5.22-11.656-11.658v0v-0.001c0-6.437,5.219-11.657,11.656-11.657c5.587,0,10.251,3.931,11.388,9.179
	C48.294,22.747,48.301,22.826,48.316,22.902z"/>
</svg>
