<?xml version="1.0" encoding="utf-8"?>
<!-- Generator: Adobe Illustrator 17.0.0, SVG Export Plug-In . SVG Version: 6.00 Build 0)  -->
<!DOCTYPE svg PUBLIC "-//W3C//DTD SVG 1.1//EN" "http://www.w3.org/Graphics/SVG/1.1/DTD/svg11.dtd">
<svg version="1.1" id="Layer_1" xmlns="http://www.w3.org/2000/svg" xmlns:xlink="http://www.w3.org/1999/xlink" x="0px" y="0px"
	 width="100px" height="100px" viewBox="0 0 100 100" enable-background="new 0 0 100 100" xml:space="preserve">
<path d="M74.51,82.92l-3.576,4.805l0.867,0.909c1.393,1.46,3.259,2.194,5.128,2.194c1.758,0,3.519-0.65,4.891-1.959
	c2.831-2.702,2.937-7.188,0.235-10.019L78.7,75.332c1.748-4.001,2.724-8.414,2.724-13.052c0-5.271-1.285-10.514-3.717-15.159
	c-1.815-3.468-6.098-4.807-9.565-2.992c-3.467,1.815-4.807,6.098-2.992,9.565c1.394,2.663,2.101,5.552,2.101,8.585
	c0,2.915-1.882,8.131-1.882,8.131c0.554-1.249,1.22-5.51,0.635-8.403L37.464,32.114l-0.23-0.23
	c-2.943-2.813-3.048-7.497-0.235-10.439c2.813-2.943,7.497-3.048,10.439-0.235c2.829,2.705,7.315,2.603,10.019-0.226
	c2.704-2.83,2.603-7.316-0.226-10.019c-8.592-8.213-22.264-7.905-30.478,0.687c-7.412,7.753-7.884,19.643-1.593,27.925
	c-5.816,6.052-9.176,14.208-9.176,22.705c0,18.042,14.678,32.72,32.72,32.72c8.214,0,15.724-3.049,21.476-8.066L74.51,82.92
	 M48.704,80.827c-10.227,0-18.547-8.32-18.547-18.547c0-4.116,1.317-7.988,3.716-11.157l-4.916-7.394l31.431,32.942
	C57.196,79.267,53.129,80.827,48.704,80.827z"/>
</svg>
