<?xml version="1.0" encoding="utf-8"?>
<!-- Generator: Adobe Illustrator 17.0.0, SVG Export Plug-In . SVG Version: 6.00 Build 0)  -->
<!DOCTYPE svg PUBLIC "-//W3C//DTD SVG 1.1//EN" "http://www.w3.org/Graphics/SVG/1.1/DTD/svg11.dtd">
<svg version="1.1" id="Layer_1" xmlns="http://www.w3.org/2000/svg" xmlns:xlink="http://www.w3.org/1999/xlink" x="0px" y="0px"
	 width="100px" height="100px" viewBox="0 0 100 100" enable-background="new 0 0 100 100" xml:space="preserve">
<path d="M64.242,41.325l-29.616-0.002h-8.753l10.711-1.958l7.747-7.747c1.638-1.635,2.542-3.815,2.542-6.134
	c0-2.318-0.903-4.497-2.542-6.137c-1.639-1.639-3.818-2.542-6.136-2.542s-4.496,0.903-6.136,2.542L7.542,43.865
	c-0.394,0.394-0.756,0.836-1.077,1.314c-0.178,0.264-0.295,0.492-0.358,0.615l-0.004,0.008l-0.035,0.062
	c-0.095,0.169-0.254,0.451-0.403,0.809c-0.14,0.334-0.217,0.615-0.259,0.767L5.4,47.46l-0.001,0.004l-0.013,0.039
	c-0.054,0.163-0.143,0.435-0.215,0.784c-0.094,0.461-0.129,0.875-0.145,1.208C5.01,49.647,4.998,49.833,5,50.048
	c0.002,0.189,0.015,0.35,0.029,0.482c0.019,0.353,0.054,0.739,0.142,1.176c0.071,0.35,0.161,0.627,0.215,0.793l0.011,0.034
	l0.004,0.015c0.043,0.154,0.122,0.438,0.26,0.771c0.16,0.387,0.333,0.693,0.456,0.908c0.057,0.112,0.16,0.312,0.307,0.539
	l0.015,0.022l0.015,0.022c0.329,0.494,0.701,0.946,1.106,1.345l24.497,24.5c1.643,1.64,3.822,2.542,6.137,2.542
	c2.314,0,4.492-0.901,6.133-2.536c3.388-3.391,3.387-8.896,0.004-12.279l-9.702-9.703h0.011l-6.257-6.261l9.056,6.261h26.793
	c7.395,0,13.411,6.015,13.411,13.407c0,4.786,3.893,8.679,8.677,8.679c4.785,0,8.679-3.892,8.679-8.677
	C95,55.124,81.202,41.325,64.242,41.325z"/>
</svg>
