<?xml version="1.0" encoding="utf-8"?>
<!-- Generator: Adobe Illustrator 17.0.0, SVG Export Plug-In . SVG Version: 6.00 Build 0)  -->
<!DOCTYPE svg PUBLIC "-//W3C//DTD SVG 1.1//EN" "http://www.w3.org/Graphics/SVG/1.1/DTD/svg11.dtd">
<svg version="1.1" id="Layer_1" xmlns="http://www.w3.org/2000/svg" xmlns:xlink="http://www.w3.org/1999/xlink" x="0px" y="0px"
	 width="100px" height="100px" viewBox="0 0 100 100" enable-background="new 0 0 100 100" xml:space="preserve">
<g>
	<path d="M23.943,30.807L5,50.001l18.942,19.192c1.728,1.751,4.53,1.751,6.258,0.002c1.729-1.75,1.73-4.587,0.002-6.338
		L18.193,50.695l-3.624,2.289l15.634-15.841c0.864-0.875,1.295-2.021,1.295-3.168c0-1.147-0.433-2.295-1.297-3.17
		C28.473,29.056,25.671,29.057,23.943,30.807z"/>
	<path d="M76.057,30.808L95,50.001L76.058,69.193c-1.728,1.751-4.53,1.751-6.258,0.002c-1.729-1.75-1.73-4.587-0.002-6.338
		l12.009-12.161l3.624,2.289L69.796,37.144c-0.864-0.875-1.295-2.021-1.295-3.168c0-1.147,0.433-2.295,1.297-3.17
		C71.527,29.056,74.329,29.057,76.057,30.808z"/>
	<path d="M60.899,32.352c-0.419-1.068-1.241-1.978-2.366-2.476c-2.249-0.997-4.857,0.028-5.825,2.288l-13.82,32.062
		c-0.484,1.13-0.467,2.355-0.048,3.422c0.419,1.068,1.241,1.978,2.366,2.476c2.249,0.997,4.857-0.028,5.825-2.288l13.82-32.062
		C61.335,34.644,61.318,33.419,60.899,32.352z"/>
</g>
</svg>
