<?xml version="1.0" encoding="utf-8"?>
<!-- Generator: Adobe Illustrator 17.0.0, SVG Export Plug-In . SVG Version: 6.00 Build 0)  -->
<!DOCTYPE svg PUBLIC "-//W3C//DTD SVG 1.1//EN" "http://www.w3.org/Graphics/SVG/1.1/DTD/svg11.dtd">
<svg version="1.1" id="Layer_1" xmlns="http://www.w3.org/2000/svg" xmlns:xlink="http://www.w3.org/1999/xlink" x="0px" y="0px"
	 width="100px" height="100px" viewBox="0 0 100 100" enable-background="new 0 0 100 100" xml:space="preserve">
<path d="M9.851,57.986c-2.088,2.489-2.755,6.025-1.426,9.235c1.329,3.209,4.301,5.238,7.538,5.522
	c-0.977,3.099-0.24,6.621,2.217,9.077s5.979,3.194,9.077,2.217c0.283,3.237,2.312,6.209,5.522,7.538
	c3.209,1.329,6.746,0.663,9.235-1.426C43.514,93.031,46.526,95,50,95c3.474,0,6.486-1.969,7.986-4.851
	c2.489,2.088,6.025,2.755,9.235,1.426c3.209-1.329,5.239-4.301,5.522-7.538c3.099,0.977,6.621,0.24,9.077-2.217
	s3.194-5.979,2.217-9.077c3.237-0.283,6.209-2.312,7.538-5.522c1.329-3.209,0.663-6.746-1.426-9.235C93.031,56.486,95,53.474,95,50
	c0-3.474-1.969-6.486-4.851-7.986c2.089-2.489,2.755-6.025,1.426-9.235c-1.329-3.209-4.301-5.238-7.538-5.522
	c0.977-3.099,0.24-6.621-2.217-9.077s-5.979-3.194-9.077-2.217c-0.283-3.237-2.312-6.209-5.522-7.538
	c-3.209-1.329-6.746-0.663-9.235,1.426C56.486,6.969,53.474,5,50,5c-3.474,0-6.486,1.969-7.986,4.851
	c-2.489-2.088-6.025-2.755-9.235-1.426c-3.209,1.329-5.238,4.301-5.522,7.538c-3.099-0.977-6.621-0.24-9.077,2.217
	s-3.194,5.979-2.217,9.077c-3.237,0.283-6.209,2.312-7.538,5.522c-1.329,3.209-0.663,6.746,1.426,9.235C6.969,43.514,5,46.526,5,50
	C5,53.474,6.969,56.486,9.851,57.986z M74.75,50c0-1.243,1.007-2.25,2.25-2.25c1.243,0,2.25,1.007,2.25,2.25
	c0,1.243-1.007,2.25-2.25,2.25C75.757,52.25,74.75,51.243,74.75,50z M65.91,65.91c1.757-1.757,4.607-1.757,6.364,0
	c1.757,1.757,1.757,4.607,0,6.364c-1.757,1.757-4.607,1.757-6.364,0C64.153,70.516,64.153,67.667,65.91,65.91z M65.91,27.726
	c1.757-1.757,4.607-1.757,6.364,0c1.757,1.757,1.757,4.607,0,6.364c-1.757,1.757-4.607,1.757-6.364,0
	C64.153,32.333,64.153,29.484,65.91,27.726z M52.25,23c0,1.243-1.007,2.25-2.25,2.25c-1.243,0-2.25-1.007-2.25-2.25
	c0-1.243,1.007-2.25,2.25-2.25C51.243,20.75,52.25,21.757,52.25,23z M47.75,77c0-1.243,1.007-2.25,2.25-2.25
	c1.243,0,2.25,1.007,2.25,2.25c0,1.243-1.007,2.25-2.25,2.25C48.757,79.25,47.75,78.243,47.75,77z M46.818,46.818
	c1.757-1.757,4.607-1.757,6.364,0c1.757,1.757,1.757,4.607,0,6.364c-1.757,1.757-4.607,1.757-6.364,0
	C45.061,51.425,45.061,48.575,46.818,46.818z M27.726,65.91c1.757-1.757,4.607-1.757,6.364,0c1.757,1.757,1.757,4.607,0,6.364
	c-1.757,1.757-4.607,1.757-6.364,0C25.969,70.516,25.969,67.667,27.726,65.91z M27.726,27.726c1.757-1.757,4.607-1.757,6.364,0
	c1.757,1.757,1.757,4.607,0,6.364c-1.757,1.757-4.607,1.757-6.364,0C25.969,32.333,25.969,29.484,27.726,27.726z M20.75,50
	c0-1.243,1.007-2.25,2.25-2.25c1.243,0,2.25,1.007,2.25,2.25c0,1.243-1.007,2.25-2.25,2.25C21.757,52.25,20.75,51.243,20.75,50z"/>
</svg>
