<?xml version="1.0" encoding="utf-8"?>
<!-- Generator: Adobe Illustrator 17.0.0, SVG Export Plug-In . SVG Version: 6.00 Build 0)  -->
<!DOCTYPE svg PUBLIC "-//W3C//DTD SVG 1.1//EN" "http://www.w3.org/Graphics/SVG/1.1/DTD/svg11.dtd">
<svg version="1.1" id="Layer_1" xmlns="http://www.w3.org/2000/svg" xmlns:xlink="http://www.w3.org/1999/xlink" x="0px" y="0px"
	 width="100px" height="100px" viewBox="0 0 100 100" enable-background="new 0 0 100 100" xml:space="preserve">
<g>
	<path d="M93.969,18.617L81.371,6.049c-1.378-1.375-3.631-1.371-5.004,0.01L52.67,29.756L29.445,6.531
		c-1.991-1.991-5.218-1.991-7.209,0L6.531,22.235c-1.991,1.991-1.991,5.219,0,7.21l2.503,2.503l11.54-11.54
		c0.443-0.443,1.163-0.443,1.605,0c0.443,0.443,0.444,1.163,0.001,1.606l-11.54,11.54l4.773,4.774l7.523-7.523
		c0.443-0.443,1.163-0.443,1.605,0c0.443,0.443,0.444,1.163,0.001,1.606l-7.523,7.523l4.773,4.774l7.523-7.523
		c0.443-0.443,1.163-0.443,1.605,0c0.443,0.443,0.444,1.163,0.001,1.606l-7.523,7.523l4.773,4.773l11.54-11.54
		c0.443-0.443,1.163-0.443,1.605,0c0.403,0.403,0.421,1.028,0.089,1.472L7.511,74.914C6.13,76.287,5,79.004,5,80.951l0,10.488v3.541
		h3.541h0.61h9.924c1.947,0,4.668-1.125,6.045-2.503l68.839-68.868C95.343,22.238,95.348,19.993,93.969,18.617z"/>
	<path d="M71.83,48.917L71.83,48.917l-0.9,0.9L48.916,71.83l4.773,4.773l7.523-7.523c0.443-0.443,1.163-0.443,1.605,0
		c0.443,0.443,0.444,1.163,0.001,1.606l-7.523,7.523l4.773,4.773l7.523-7.523c0.443-0.443,1.163-0.443,1.605-0.001
		c0.443,0.443,0.444,1.163,0.001,1.607l-7.523,7.523l4.774,4.773l11.54-11.54c0.443-0.443,1.163-0.443,1.605-0.001
		c0.443,0.443,0.444,1.164,0.001,1.607l-11.54,11.54l2.501,2.501c1.991,1.991,5.218,1.991,7.209,0l15.704-15.704
		c1.991-1.991,1.991-5.219,0-7.209L71.83,48.917z"/>
</g>
</svg>
