<?xml version="1.0" encoding="utf-8"?>
<!-- Generator: Adobe Illustrator 17.0.0, SVG Export Plug-In . SVG Version: 6.00 Build 0)  -->
<!DOCTYPE svg PUBLIC "-//W3C//DTD SVG 1.1//EN" "http://www.w3.org/Graphics/SVG/1.1/DTD/svg11.dtd">
<svg version="1.1" id="Layer_1" xmlns="http://www.w3.org/2000/svg" xmlns:xlink="http://www.w3.org/1999/xlink" x="0px" y="0px"
	 width="100px" height="100px" viewBox="0 0 100 100" enable-background="new 0 0 100 100" xml:space="preserve">
<path d="M79.704,41.789l-0.008,0c-1.364,0-2.535,0.809-3.07,1.971l-3.687,8.306L64.12,31.041c-0.504-1.235-1.714-2.107-3.131-2.107
	c-1.46,0-2.7,0.927-3.173,2.224L47.593,60.901L32.789,15.757c-0.392-1.434-1.7-2.489-3.258-2.489c-1.516,0-2.798,0.997-3.227,2.372
	l-10.58,31.212H5v10.45c0,0,15.931,0.003,15.969,0.003c1.56,0,2.869-1.058,3.259-2.494l4.424-13.368l-1.252-9.891l16.521,52.858
	c0.445,1.349,1.712,2.323,3.21,2.323c1.481,0,2.736-0.954,3.194-2.279h0.001l10.524-30.057l-2.34-9.705l11.133,26.356
	c0.51,1.22,1.715,2.078,3.12,2.078c1.404,0,2.608-0.857,3.119-2.075l7.838-17.52l-1.603-1.306H95v-10.45L79.704,41.789z"/>
</svg>
