<?xml version="1.0" encoding="utf-8"?>
<!-- Generator: Adobe Illustrator 17.0.0, SVG Export Plug-In . SVG Version: 6.00 Build 0)  -->
<!DOCTYPE svg PUBLIC "-//W3C//DTD SVG 1.1//EN" "http://www.w3.org/Graphics/SVG/1.1/DTD/svg11.dtd">
<svg version="1.1" id="Layer_1" xmlns="http://www.w3.org/2000/svg" xmlns:xlink="http://www.w3.org/1999/xlink" x="0px" y="0px"
	 width="100px" height="100px" viewBox="0 0 100 100" enable-background="new 0 0 100 100" xml:space="preserve">
<g>
	<g>
		<g>
			<path d="M62.728,10.148H58.5h-1.634V6.419C56.866,5.636,56.231,5,55.447,5H44.553c-0.784,0-1.419,0.636-1.419,1.419v3.729H41.5
				h-4.228c-4.686,0-8.485,3.799-8.485,8.485v67.881c0,4.686,3.799,8.485,8.485,8.485h25.455c4.686,0,8.485-3.799,8.485-8.485
				V18.633C71.213,13.947,67.414,10.148,62.728,10.148z M61.692,82.925c0,1.409-1.146,2.555-2.555,2.555H40.863
				c-1.409,0-2.555-1.146-2.555-2.555V22.224c0-1.409,1.146-2.555,2.555-2.555h18.274c1.409,0,2.555,1.146,2.555,2.555V82.925z"/>
		</g>
	</g>
</g>
</svg>
