<?xml version="1.0" encoding="utf-8"?>
<!-- Generator: Adobe Illustrator 17.0.0, SVG Export Plug-In . SVG Version: 6.00 Build 0)  -->
<!DOCTYPE svg PUBLIC "-//W3C//DTD SVG 1.1//EN" "http://www.w3.org/Graphics/SVG/1.1/DTD/svg11.dtd">
<svg version="1.1" id="Layer_1" xmlns="http://www.w3.org/2000/svg" xmlns:xlink="http://www.w3.org/1999/xlink" x="0px" y="0px"
	 width="100px" height="100px" viewBox="0 0 100 100" enable-background="new 0 0 100 100" xml:space="preserve">
<g>
	<polygon points="83.781,75.269 86.367,72.683 88.954,75.269 88.954,50.216 83.781,52.514 	"/>
	<path d="M93.912,39.711L52.57,19.006c-1.413-0.708-3.726-0.708-5.139,0L6.088,39.711c-1.413,0.708-1.455,1.944-0.094,2.746
		l38.516,22.696l0.026,0.015L18.962,53.723v7.495c0,1.581,1.114,3.531,2.476,4.333l26.086,15.371c1.362,0.803,3.59,0.803,4.952,0
		l26.086-15.371c1.362-0.803,2.476-2.752,2.476-4.333v-7.486L55.951,64.881l38.055-22.424
		C95.367,41.654,95.325,40.418,93.912,39.711z"/>
</g>
</svg>
