<?xml version="1.0" encoding="utf-8"?>
<!-- Generator: Adobe Illustrator 17.0.0, SVG Export Plug-In . SVG Version: 6.00 Build 0)  -->
<!DOCTYPE svg PUBLIC "-//W3C//DTD SVG 1.1//EN" "http://www.w3.org/Graphics/SVG/1.1/DTD/svg11.dtd">
<svg version="1.1" id="Layer_1" xmlns="http://www.w3.org/2000/svg" xmlns:xlink="http://www.w3.org/1999/xlink" x="0px" y="0px"
	 width="100px" height="100px" viewBox="0 0 100 100" enable-background="new 0 0 100 100" xml:space="preserve">
<g>
	<path d="M39.516,15.484v24.032H15.484C9.703,39.516,5,44.219,5,50s4.703,10.484,10.484,10.484h30.275l-6.244,2.817v21.215
		C39.516,90.297,44.219,95,50,95c5.781,0,10.484-4.703,10.484-10.484V60.484h24.031C90.297,60.484,95,55.781,95,50
		s-4.703-10.484-10.484-10.484H63.301l-2.817,6.244V15.484C60.484,9.703,55.781,5,50,5C44.219,5,39.516,9.703,39.516,15.484z"/>
</g>
</svg>
