<?xml version="1.0" encoding="utf-8"?>
<!-- Generator: Adobe Illustrator 17.0.0, SVG Export Plug-In . SVG Version: 6.00 Build 0)  -->
<!DOCTYPE svg PUBLIC "-//W3C//DTD SVG 1.1//EN" "http://www.w3.org/Graphics/SVG/1.1/DTD/svg11.dtd">
<svg version="1.1" id="Layer_1" xmlns="http://www.w3.org/2000/svg" xmlns:xlink="http://www.w3.org/1999/xlink" x="0px" y="0px"
	 width="100px" height="100px" viewBox="0 0 100 100" enable-background="new 0 0 100 100" xml:space="preserve">
<path d="M66.264,60.039c0.475-3.184,0.669-5.277,0.669-5.277C69.585,15.161,50.778,5.495,49.977,5
	c-0.8,0.495-19.607,10.161-16.956,49.762c0,0,0.196,2.105,0.674,5.306C13.878,74.365,21.198,95,21.198,95
	c4.456-8.588,10.645-12.65,15.145-14.555L35.21,71.51l3.264,8.139c0.003-0.001,0.006-0.002,0.009-0.003
	c0.479,1.243,1.012,2.44,1.59,3.566c0.024,0.046,0.057,0.091,0.094,0.135c1.608,2.984,5.405,5.081,9.834,5.081
	c4.447,0,8.258-2.115,9.854-5.119c0.029-0.038,0.055-0.077,0.075-0.116c0.556-1.124,1.071-2.32,1.55-3.561
	c0.002,0.001,0.005,0.002,0.007,0.002l3.258-8.124l-1.087,8.934c4.5,1.907,10.688,5.968,15.145,14.556
	C78.801,95,86.133,74.337,66.264,60.039z M50,39.942c-3.813,0-6.904-3.091-6.904-6.904s3.091-6.904,6.904-6.904
	c3.813,0,6.904,3.091,6.904,6.904S53.813,39.942,50,39.942z"/>
</svg>
