<?xml version="1.0" encoding="utf-8"?>
<!-- Generator: Adobe Illustrator 17.0.0, SVG Export Plug-In . SVG Version: 6.00 Build 0)  -->
<!DOCTYPE svg PUBLIC "-//W3C//DTD SVG 1.1//EN" "http://www.w3.org/Graphics/SVG/1.1/DTD/svg11.dtd">
<svg version="1.1" id="Layer_1" xmlns="http://www.w3.org/2000/svg" xmlns:xlink="http://www.w3.org/1999/xlink" x="0px" y="0px"
	 width="100px" height="100px" viewBox="0 0 100 100" enable-background="new 0 0 100 100" xml:space="preserve">
<path d="M76.752,5H23.248c-9.85,0-17.835,7.985-17.835,17.835v32.697c0,8.663,6.178,15.877,14.367,17.492V95l19.1-19.1
	l-10.637-2.533h13.17h35.339c9.85,0,17.835-7.985,17.835-17.835V22.835C94.587,12.985,86.603,5,76.752,5z M32.165,33.734
	c3.005,0,5.45,2.445,5.45,5.45c0,3.004-2.445,5.45-5.45,5.45s-5.45-2.445-5.45-5.45C26.716,36.179,29.16,33.734,32.165,33.734z
	 M50,44.633c-3.005,0-5.45-2.445-5.45-5.45c0-3.004,2.445-5.45,5.45-5.45s5.45,2.445,5.45,5.45
	C55.45,42.188,53.005,44.633,50,44.633z M67.835,44.633c-3.005,0-5.45-2.445-5.45-5.45c0-3.004,2.445-5.45,5.45-5.45
	c3.005,0,5.45,2.445,5.45,5.45C73.284,42.188,70.84,44.633,67.835,44.633z"/>
</svg>
