<?xml version="1.0" encoding="utf-8"?>
<!-- Generator: Adobe Illustrator 17.0.0, SVG Export Plug-In . SVG Version: 6.00 Build 0)  -->
<!DOCTYPE svg PUBLIC "-//W3C//DTD SVG 1.1//EN" "http://www.w3.org/Graphics/SVG/1.1/DTD/svg11.dtd">
<svg version="1.1" id="Layer_1" xmlns="http://www.w3.org/2000/svg" xmlns:xlink="http://www.w3.org/1999/xlink" x="0px" y="0px"
	 width="100px" height="100px" viewBox="0 0 100 100" enable-background="new 0 0 100 100" xml:space="preserve">
<g>
	<path d="M8.955,28.08L30.874,50L8.955,71.919c-5.273,5.273-5.273,13.853,0,19.126c5.273,5.273,13.853,5.273,19.126,0l27.614-27.614
		l-3.126,8.264l19.35,19.35c5.273,5.273,13.853,5.273,19.126,0c5.273-5.273,5.273-13.853,0-19.126L69.126,50l21.919-21.919
		c5.273-5.273,5.273-13.853,0-19.126c-5.273-5.273-13.853-5.273-19.126,0l-19.35,19.35l3.126,8.264L28.081,8.955
		c-5.273-5.273-13.853-5.273-19.126,0C3.682,14.228,3.682,22.807,8.955,28.08z"/>
</g>
</svg>
